<mxfile host="65bd71144e">
    <diagram id="oST1ziDif6kEccXKR9cC" name="第 1 页">
        <mxGraphModel dx="1270" dy="379" grid="1" gridSize="10" guides="1" tooltips="1" connect="1" arrows="1" fold="1" page="1" pageScale="1" pageWidth="1169" pageHeight="827" background="none" math="0" shadow="0">
            <root>
                <mxCell id="0"/>
                <mxCell id="1" parent="0"/>
                <mxCell id="26" value="" style="group" vertex="1" connectable="0" parent="1">
                    <mxGeometry x="50" y="90" width="299.2924528301887" height="549.9999999999999" as="geometry"/>
                </mxCell>
                <mxCell id="11" value="" style="rounded=0;whiteSpace=wrap;html=1;labelBackgroundColor=none;fontFamily=Helvetica;fontSize=9;movable=1;resizable=1;rotatable=1;deletable=1;editable=1;connectable=1;" parent="26" vertex="1">
                    <mxGeometry y="63.76811594202897" width="299.2924528301887" height="486.23188405797094" as="geometry"/>
                </mxCell>
                <mxCell id="9" value="&lt;div style=&quot;font-family: &amp;quot;Fira Code&amp;quot;, Consolas, &amp;quot;Courier New&amp;quot;, monospace; font-weight: normal; font-size: 9px; line-height: 19px;&quot;&gt;&lt;div style=&quot;line-height: 19px; font-size: 9px;&quot;&gt;&lt;div style=&quot;font-size: 9px;&quot;&gt;&lt;span style=&quot;font-size: 9px;&quot;&gt;&amp;nbsp; &amp;nbsp; &lt;/span&gt;&lt;span style=&quot;font-size: 9px;&quot;&gt;void&lt;/span&gt;&lt;span style=&quot;font-size: 9px;&quot;&gt; &lt;/span&gt;&lt;span style=&quot;font-size: 9px;&quot;&gt;take_gun&lt;/span&gt;&lt;span style=&quot;font-size: 9px;&quot;&gt;(&lt;/span&gt;&lt;span style=&quot;font-size: 9px;&quot;&gt;class&lt;/span&gt;&lt;span style=&quot;font-size: 9px;&quot;&gt; &lt;/span&gt;&lt;span style=&quot;font-size: 9px;&quot;&gt;Gun&lt;/span&gt;&lt;span style=&quot;font-size: 9px;&quot;&gt; &lt;/span&gt;&lt;span style=&quot;font-size: 9px;&quot;&gt;*&lt;/span&gt;&lt;span style=&quot;font-style: italic; font-size: 9px;&quot;&gt;gun&lt;/span&gt;&lt;span style=&quot;font-size: 9px;&quot;&gt;)&lt;/span&gt;&lt;span style=&quot;font-style: italic; font-size: 9px;&quot;&gt; //用来接收枪的地址,类型是枪类型的指针Gun*&lt;/span&gt;&lt;/div&gt;&lt;div style=&quot;font-size: 9px;&quot;&gt;&lt;span style=&quot;font-size: 9px;&quot;&gt;&amp;nbsp; &amp;nbsp; &lt;/span&gt;&lt;span style=&quot;font-size: 9px;&quot;&gt;{&lt;/span&gt;&lt;/div&gt;&lt;div style=&quot;font-size: 9px;&quot;&gt;&lt;span style=&quot;font-size: 9px;&quot;&gt;&amp;nbsp; &amp;nbsp; &amp;nbsp; &amp;nbsp; &lt;/span&gt;&lt;span style=&quot;font-size: 9px;&quot;&gt;this-&amp;gt;&lt;/span&gt;Gun&lt;span style=&quot;font-size: 9px;&quot;&gt; &lt;/span&gt;&lt;span style=&quot;font-size: 9px;&quot;&gt;=&lt;/span&gt;&lt;span style=&quot;font-size: 9px;&quot;&gt; &lt;/span&gt;&lt;span style=&quot;font-style: italic; font-size: 9px;&quot;&gt;gun&lt;/span&gt;&lt;span style=&quot;font-size: 9px;&quot;&gt;;&lt;/span&gt;&lt;span style=&quot;font-style: italic; font-size: 9px;&quot;&gt; // 把枪的地址赋值给老王&lt;/span&gt;&lt;/div&gt;&lt;div style=&quot;font-size: 9px;&quot;&gt;&lt;span style=&quot;font-size: 9px;&quot;&gt;&amp;nbsp; &amp;nbsp; &amp;nbsp; &amp;nbsp; &lt;/span&gt;cout&lt;span style=&quot;font-size: 9px;&quot;&gt;&amp;lt;&amp;lt;&lt;/span&gt;&lt;span style=&quot;font-size: 9px;&quot;&gt;this-&amp;gt;&lt;/span&gt;Name&lt;span style=&quot;font-size: 9px;&quot;&gt;&amp;lt;&amp;lt;&lt;/span&gt;&lt;span style=&quot;font-size: 9px;&quot;&gt;&quot;&lt;/span&gt;&lt;span style=&quot;font-size: 9px;&quot;&gt;拿起了&lt;/span&gt;&lt;span style=&quot;font-size: 9px;&quot;&gt;&quot;&lt;/span&gt;&lt;span style=&quot;font-size: 9px;&quot;&gt;&amp;lt;&amp;lt;&lt;/span&gt;&lt;span style=&quot;font-style: italic; font-size: 9px;&quot;&gt;gun&lt;/span&gt;&lt;span style=&quot;font-size: 9px;&quot;&gt;-&amp;gt;&lt;/span&gt;Name&lt;span style=&quot;font-size: 9px;&quot;&gt;&amp;lt;&amp;lt;&lt;/span&gt;&lt;span style=&quot;font-size: 9px;&quot;&gt;endl&lt;/span&gt;&lt;span style=&quot;font-size: 9px;&quot;&gt;;&lt;/span&gt;&lt;span style=&quot;font-style: italic; font-size: 9px;&quot;&gt;//打印老王拿起了什么枪&lt;/span&gt;&lt;/div&gt;&lt;div style=&quot;font-size: 9px;&quot;&gt;&lt;span style=&quot;font-size: 9px;&quot;&gt;&amp;nbsp; &amp;nbsp; &lt;/span&gt;&lt;span style=&quot;font-size: 9px;&quot;&gt;}&lt;/span&gt;&lt;/div&gt;&lt;/div&gt;&lt;/div&gt;" style="text;whiteSpace=wrap;html=1;fillColor=#d80073;rounded=0;labelBackgroundColor=none;fontColor=#ffffff;strokeColor=#A50040;fontSize=9;movable=1;resizable=1;rotatable=1;deletable=1;editable=1;connectable=1;" parent="26" vertex="1">
                    <mxGeometry x="12.74" y="250" width="267.45" height="140.58" as="geometry"/>
                </mxCell>
                <mxCell id="12" value="class Gun *Gun;" style="rounded=1;whiteSpace=wrap;html=1;fillColor=#d80073;fontColor=#ffffff;strokeColor=#A50040;fontSize=9;movable=1;resizable=1;rotatable=1;deletable=1;editable=1;connectable=1;" parent="26" vertex="1">
                    <mxGeometry x="12.735849056603776" y="159.42028985507244" width="108.2547169811321" height="47.82608695652172" as="geometry"/>
                </mxCell>
                <mxCell id="13" value="&lt;div style=&quot;font-family: &amp;quot;Fira Code&amp;quot;, Consolas, &amp;quot;Courier New&amp;quot;, monospace; font-weight: normal; font-size: 9px; line-height: 19px;&quot;&gt;&lt;div style=&quot;font-size: 9px;&quot;&gt;&lt;span style=&quot;font-style: italic; font-size: 9px;&quot;&gt;&amp;nbsp; &amp;nbsp; // 显示打印输出人类信息&lt;/span&gt;&lt;/div&gt;&lt;div style=&quot;font-size: 9px;&quot;&gt;&lt;span style=&quot;font-size: 9px;&quot;&gt;&amp;nbsp; &amp;nbsp; &lt;/span&gt;&lt;span style=&quot;font-size: 9px;&quot;&gt;void&lt;/span&gt;&lt;span style=&quot;font-size: 9px;&quot;&gt; &lt;/span&gt;&lt;span style=&quot;font-size: 9px;&quot;&gt;display_info&lt;/span&gt;&lt;span style=&quot;font-size: 9px;&quot;&gt;()&lt;/span&gt;&lt;/div&gt;&lt;div style=&quot;font-size: 9px;&quot;&gt;&lt;span style=&quot;font-size: 9px;&quot;&gt;&amp;nbsp; &amp;nbsp; &lt;/span&gt;&lt;span style=&quot;font-size: 9px;&quot;&gt;{&lt;/span&gt;&lt;/div&gt;&lt;div style=&quot;font-size: 9px;&quot;&gt;&lt;span style=&quot;font-size: 9px;&quot;&gt;&amp;nbsp; &amp;nbsp; &amp;nbsp; &amp;nbsp; &lt;/span&gt;&lt;span style=&quot;font-size: 9px;&quot;&gt;cout&lt;/span&gt;&lt;span style=&quot;font-size: 9px;&quot;&gt; &lt;/span&gt;&lt;span style=&quot;font-size: 9px;&quot;&gt;&amp;lt;&amp;lt;&lt;/span&gt;&lt;span style=&quot;font-size: 9px;&quot;&gt; &lt;/span&gt;&lt;span style=&quot;font-size: 9px;&quot;&gt;&quot;&lt;/span&gt;&lt;span style=&quot;font-size: 9px;&quot;&gt;姓名:&lt;/span&gt;&lt;span style=&quot;font-size: 9px;&quot;&gt;&quot;&lt;/span&gt;&lt;span style=&quot;font-size: 9px;&quot;&gt; &lt;/span&gt;&lt;span style=&quot;font-size: 9px;&quot;&gt;&amp;lt;&amp;lt;&lt;/span&gt;&lt;span style=&quot;font-size: 9px;&quot;&gt; &lt;/span&gt;&lt;span style=&quot;font-size: 9px;&quot;&gt;this-&amp;gt;&lt;/span&gt;&lt;span style=&quot;font-size: 9px;&quot;&gt;Name&lt;/span&gt;&lt;span style=&quot;font-size: 9px;&quot;&gt; &lt;/span&gt;&lt;span style=&quot;font-size: 9px;&quot;&gt;&amp;lt;&amp;lt;&lt;/span&gt;&lt;span style=&quot;font-size: 9px;&quot;&gt; &lt;/span&gt;&lt;span style=&quot;font-size: 9px;&quot;&gt;endl&lt;/span&gt;&lt;span style=&quot;font-size: 9px;&quot;&gt;;&lt;/span&gt;&lt;/div&gt;&lt;div style=&quot;font-size: 9px;&quot;&gt;&lt;span style=&quot;font-size: 9px;&quot;&gt;&amp;nbsp; &amp;nbsp; &lt;/span&gt;&lt;span style=&quot;font-size: 9px;&quot;&gt;}&lt;/span&gt;&lt;/div&gt;&lt;/div&gt;" style="text;whiteSpace=wrap;html=1;fillColor=#0050ef;rounded=0;labelBackgroundColor=none;fontColor=#ffffff;strokeColor=#001DBC;fontSize=9;movable=1;resizable=1;rotatable=1;deletable=1;editable=1;connectable=1;" parent="26" vertex="1">
                    <mxGeometry x="12.74" y="406.52" width="267.45" height="103.48" as="geometry"/>
                </mxCell>
                <mxCell id="20" value="老王对象" style="rounded=1;whiteSpace=wrap;html=1;fillColor=#0050ef;fontColor=#ffffff;strokeColor=#001DBC;fontSize=9;movable=1;resizable=1;rotatable=1;deletable=1;editable=1;connectable=1;" parent="26" vertex="1">
                    <mxGeometry width="108.2547169811321" height="47.82608695652172" as="geometry"/>
                </mxCell>
                <mxCell id="2" value="string Name = &quot;老王&quot;" style="rounded=1;whiteSpace=wrap;html=1;fillColor=#0050ef;fontColor=#ffffff;strokeColor=#001DBC;fontSize=9;movable=1;resizable=1;rotatable=1;deletable=1;editable=1;connectable=1;" parent="26" vertex="1">
                    <mxGeometry x="12.735849056603776" y="95.65217391304344" width="108.2547169811321" height="47.82608695652172" as="geometry"/>
                </mxCell>
                <mxCell id="27" value="" style="group" vertex="1" connectable="0" parent="1">
                    <mxGeometry x="425.70754716981133" y="90" width="299.29245283018867" height="549.9999999999999" as="geometry"/>
                </mxCell>
                <mxCell id="21" value="&amp;amp;枪对象" style="rounded=1;whiteSpace=wrap;html=1;fillColor=#0050ef;fontColor=#ffffff;strokeColor=#001DBC;fontSize=9;movable=1;resizable=1;rotatable=1;deletable=1;editable=1;connectable=1;" parent="27" vertex="1">
                    <mxGeometry x="12.735849056603797" width="108.2547169811321" height="47.82608695652172" as="geometry"/>
                </mxCell>
                <mxCell id="15" value="" style="rounded=0;whiteSpace=wrap;html=1;labelBackgroundColor=none;fontFamily=Helvetica;fontSize=9;movable=1;resizable=1;rotatable=1;deletable=1;editable=1;connectable=1;" parent="27" vertex="1">
                    <mxGeometry y="63.76811594202897" width="299.2924528301887" height="486.23188405797094" as="geometry"/>
                </mxCell>
                <mxCell id="16" value="string Name = &quot;AK47&quot;" style="rounded=1;whiteSpace=wrap;html=1;fillColor=#0050ef;fontColor=#ffffff;strokeColor=#001DBC;fontSize=9;movable=1;resizable=1;rotatable=1;deletable=1;editable=1;connectable=1;" parent="27" vertex="1">
                    <mxGeometry x="12.735849056603797" y="95.65217391304344" width="108.2547169811321" height="47.82608695652172" as="geometry"/>
                </mxCell>
                <mxCell id="17" value="&lt;div style=&quot;font-family: &amp;quot;Fira Code&amp;quot;, Consolas, &amp;quot;Courier New&amp;quot;, monospace; font-weight: normal; font-size: 9px; line-height: 19px;&quot;&gt;&lt;div style=&quot;line-height: 19px; font-size: 9px;&quot;&gt;&lt;div style=&quot;font-size: 9px;&quot;&gt;&lt;br&gt;&lt;/div&gt;&lt;/div&gt;&lt;/div&gt;" style="text;whiteSpace=wrap;html=1;fillColor=#d80073;rounded=0;labelBackgroundColor=none;fontColor=#ffffff;strokeColor=#A50040;fontSize=9;movable=1;resizable=1;rotatable=1;deletable=1;editable=1;connectable=1;" parent="27" vertex="1">
                    <mxGeometry x="12.74" y="250" width="267.26" height="140.58" as="geometry"/>
                </mxCell>
                <mxCell id="18" value="class Bullet *bullet;" style="rounded=1;whiteSpace=wrap;html=1;fillColor=#d80073;fontColor=#ffffff;strokeColor=#A50040;fontSize=9;movable=1;resizable=1;rotatable=1;deletable=1;editable=1;connectable=1;" parent="27" vertex="1">
                    <mxGeometry x="12.735849056603797" y="159.42028985507244" width="108.2547169811321" height="47.82608695652172" as="geometry"/>
                </mxCell>
                <mxCell id="19" value="&lt;div style=&quot;font-family: &amp;quot;Fira Code&amp;quot;, Consolas, &amp;quot;Courier New&amp;quot;, monospace; font-weight: normal; font-size: 9px; line-height: 19px;&quot;&gt;&lt;div style=&quot;font-size: 9px;&quot;&gt;&lt;br&gt;&lt;/div&gt;&lt;/div&gt;" style="text;whiteSpace=wrap;html=1;fillColor=#0050ef;rounded=0;labelBackgroundColor=none;fontColor=#ffffff;strokeColor=#001DBC;fontSize=9;movable=1;resizable=1;rotatable=1;deletable=1;editable=1;connectable=1;" parent="27" vertex="1">
                    <mxGeometry x="12.74" y="406.52" width="267.45" height="103.48" as="geometry"/>
                </mxCell>
                <mxCell id="36" value="" style="orthogonalLoop=1;jettySize=auto;html=1;entryX=0;entryY=0.5;entryDx=0;entryDy=0;edgeStyle=elbowEdgeStyle;fontSize=9;movable=1;resizable=1;rotatable=1;deletable=1;editable=1;connectable=1;exitX=1;exitY=0.5;exitDx=0;exitDy=0;" edge="1" parent="27">
                    <mxGeometry width="80" relative="1" as="geometry">
                        <mxPoint x="120.99301886792449" y="179.42333333333335" as="sourcePoint"/>
                        <mxPoint x="388.4458490566039" y="20.00304347826082" as="targetPoint"/>
                        <Array as="points">
                            <mxPoint x="170.0024528301887" y="186.08999999999997"/>
                        </Array>
                    </mxGeometry>
                </mxCell>
                <mxCell id="22" value="" style="orthogonalLoop=1;jettySize=auto;html=1;entryX=0;entryY=0.5;entryDx=0;entryDy=0;edgeStyle=elbowEdgeStyle;fontSize=9;movable=1;resizable=1;rotatable=1;deletable=1;editable=1;connectable=1;exitX=1;exitY=0.5;exitDx=0;exitDy=0;" edge="1" parent="1" source="12" target="21">
                    <mxGeometry width="80" relative="1" as="geometry">
                        <mxPoint x="180" y="210" as="sourcePoint"/>
                        <mxPoint x="447.99528301886795" y="145.79710144927535" as="targetPoint"/>
                        <Array as="points">
                            <mxPoint x="220" y="280"/>
                        </Array>
                    </mxGeometry>
                </mxCell>
                <mxCell id="28" value="" style="group" vertex="1" connectable="0" parent="1">
                    <mxGeometry x="799.9975471698114" y="90" width="299.29245283018867" height="549.9999999999999" as="geometry"/>
                </mxCell>
                <mxCell id="29" value="&amp;amp;子弹对象" style="rounded=1;whiteSpace=wrap;html=1;fillColor=#0050ef;fontColor=#ffffff;strokeColor=#001DBC;fontSize=9;movable=1;resizable=1;rotatable=1;deletable=1;editable=1;connectable=1;" vertex="1" parent="28">
                    <mxGeometry x="12.735849056603797" width="108.2547169811321" height="47.82608695652172" as="geometry"/>
                </mxCell>
                <mxCell id="30" value="" style="rounded=0;whiteSpace=wrap;html=1;labelBackgroundColor=none;fontFamily=Helvetica;fontSize=9;movable=1;resizable=1;rotatable=1;deletable=1;editable=1;connectable=1;" vertex="1" parent="28">
                    <mxGeometry y="63.76811594202897" width="299.2924528301887" height="486.23188405797094" as="geometry"/>
                </mxCell>
                <mxCell id="31" value="string Name = &quot;7.62&quot;" style="rounded=1;whiteSpace=wrap;html=1;fillColor=#0050ef;fontColor=#ffffff;strokeColor=#001DBC;fontSize=9;movable=1;resizable=1;rotatable=1;deletable=1;editable=1;connectable=1;" vertex="1" parent="28">
                    <mxGeometry x="12.735849056603797" y="95.65217391304344" width="108.2547169811321" height="47.82608695652172" as="geometry"/>
                </mxCell>
                <mxCell id="32" value="&lt;div style=&quot;font-family: &amp;quot;Fira Code&amp;quot;, Consolas, &amp;quot;Courier New&amp;quot;, monospace; font-weight: normal; font-size: 9px; line-height: 19px;&quot;&gt;&lt;div style=&quot;line-height: 19px; font-size: 9px;&quot;&gt;&lt;div style=&quot;font-size: 9px;&quot;&gt;&lt;br&gt;&lt;/div&gt;&lt;/div&gt;&lt;/div&gt;" style="text;whiteSpace=wrap;html=1;fillColor=#d80073;rounded=0;labelBackgroundColor=none;fontColor=#ffffff;strokeColor=#A50040;fontSize=9;movable=1;resizable=1;rotatable=1;deletable=1;editable=1;connectable=1;" vertex="1" parent="28">
                    <mxGeometry x="12.74" y="250" width="267.26" height="140.58" as="geometry"/>
                </mxCell>
                <mxCell id="33" value="" style="rounded=1;whiteSpace=wrap;html=1;fillColor=#d80073;fontColor=#ffffff;strokeColor=#A50040;fontSize=9;movable=1;resizable=1;rotatable=1;deletable=1;editable=1;connectable=1;" vertex="1" parent="28">
                    <mxGeometry x="12.735849056603797" y="159.42028985507244" width="108.2547169811321" height="47.82608695652172" as="geometry"/>
                </mxCell>
                <mxCell id="34" value="&lt;div style=&quot;font-family: &amp;quot;Fira Code&amp;quot;, Consolas, &amp;quot;Courier New&amp;quot;, monospace; font-weight: normal; font-size: 9px; line-height: 19px;&quot;&gt;&lt;div style=&quot;font-size: 9px;&quot;&gt;&lt;br&gt;&lt;/div&gt;&lt;/div&gt;" style="text;whiteSpace=wrap;html=1;fillColor=#0050ef;rounded=0;labelBackgroundColor=none;fontColor=#ffffff;strokeColor=#001DBC;fontSize=9;movable=1;resizable=1;rotatable=1;deletable=1;editable=1;connectable=1;" vertex="1" parent="28">
                    <mxGeometry x="12.74" y="406.52" width="267.45" height="103.48" as="geometry"/>
                </mxCell>
            </root>
        </mxGraphModel>
    </diagram>
</mxfile>